<?xml version="1.0" standalone="no"?>
<!DOCTYPE svg PUBLIC "-//W3C//DTD SVG 20010904//EN"
 "http://www.w3.org/TR/2001/REC-SVG-20010904/DTD/svg10.dtd">
<svg version="1.0" xmlns="http://www.w3.org/2000/svg"
 width="128.000000pt" height="128.000000pt" viewBox="0 0 128.000000 128.000000"
 preserveAspectRatio="xMidYMid meet">
<metadata>
Created by potrace 1.14, written by Peter Selinger 2001-2017
</metadata>
<g transform="translate(0.000000,128.000000) scale(0.100000,-0.100000)"
fill="#000000" stroke="none">
<path d="M328 1147 c-7 -7 -20 -12 -28 -12 -73 0 -168 -65 -198 -135 -35 -79
-22 -151 45 -248 41 -61 45 -70 39 -110 -3 -25 -24 -77 -45 -116 -40 -72 -66
-142 -76 -206 -3 -19 -7 -44 -9 -55 -2 -11 -7 -45 -11 -75 l-7 -55 249 0 248
0 -2 30 c-3 43 -51 186 -76 226 -11 19 -23 43 -25 54 -10 40 -6 121 7 153 11
27 17 31 39 25 39 -9 65 -10 93 0 26 8 27 9 24 92 -3 75 -1 84 16 88 26 7 24
34 -7 79 -19 27 -25 46 -21 65 14 73 -90 183 -188 199 -22 3 -43 8 -47 10 -3
2 -12 -2 -20 -9z"/>
<path d="M814 1118 c-45 -28 -46 -40 -8 -104 20 -32 41 -62 49 -66 9 -6 13
-36 13 -107 0 -94 2 -102 28 -136 15 -20 37 -41 49 -45 14 -5 21 -18 23 -39 2
-25 -3 -33 -27 -46 -40 -20 -98 -98 -112 -149 -12 -43 -16 -282 -5 -293 7 -8
404 -8 412 0 3 3 6 103 6 222 0 206 -1 219 -21 238 -11 11 -35 21 -53 22 l-32
2 -1 66 c-1 62 1 68 31 97 80 75 100 260 28 260 -8 0 -30 15 -48 34 -41 41
-103 56 -242 59 -43 2 -70 -3 -90 -15z"/>
</g>
</svg>
